<svg xmlns="http://www.w3.org/2000/svg" viewBox="0 0 1140 317.8">
    <g transform="scale(39)" viewBox="0 0 8 8" fill="#ff5600">
        <path d="M2,-0L1,-0C0.735,-0 0.48,0.105 0.293,0.293C0.105,0.48 -0,0.735 0,1C0,2.459 0,5 0,5L1,5C1.265,5 1.52,4.895 1.707,4.707C1.895,4.52 2,4.265 2,4C2,2.541 2,-0 2,-0Z" />
        <path d="M8,3L6,3L6,8L7,8C7.265,8 7.52,7.895 7.707,7.707C7.895,7.52 8,7.265 8,7C8,5.541 8,3 8,3Z" />
        <path d="M5,3L5,8L1,8C0.735,8 0.48,7.895 0.293,7.707C0.105,7.52 -0,7.265 -0,7C0,6.5 0,6 0,6L1,6C1.53,6 2.039,5.789 2.414,5.414C2.789,5.039 3,4.53 3,4L3,3L5,3Z" />
        <path d="M8,1C8,0.735 7.895,0.48 7.707,0.293C7.52,0.105 7.265,-0 7,0C5.541,-0 3,-0 3,-0L3,2L8,2L8,1Z" />
    </g>
    <g fill-rule="evenodd" fill="#fee100" clip-rule="evenodd">
        <path d="M746.8,18.6h46l.1,44.9H746.8Z"/>
        <path d="M956.4,178.3c0,54.4,41.4,98.2,92.1,98.3,44.6,0,76.3-25.9,86.8-64.3h-49.2c-7.6,15.1-22.6,22-38,22-21.7,0-39.1-14.4-45.1-37.3h135.7c6.7-74.6-37.2-117.6-90.2-117.6-50.6-.1-92.1,44.4-92.1,98.9m91.7-56.6c22.1-.1,39.5,13.9,45.1,35.7h-89.4c6.6-21.9,23.4-35.7,44.3-35.7"/>
        <path d="M855.7,218.1v54.1H809.6V17h46.2V152.3L914.7,84h63.5l-67.1,73.4L982,272.2l-58.7-.1-44.7-79.2-22.9,25.2"/>
        <path d="M746.9,84h46V272.3h-46Z"/>
        <path d="M653.5,275.3a72.81,72.81,0,0,1-52.4-22.2v53.6H554.9V84H599v19.7a73.74,73.74,0,0,1,54.5-24c46.8,0,85.1,42.2,85.1,97.4,0,55.6-38.2,98.2-85.1,98.2M647,124.4c-25.5,0-45.9,23.6-45.9,52.7,0,29.4,20.5,53.5,45.8,53.5s45.9-22.9,45.8-53.5c.1-30.2-20.4-52.7-45.7-52.7M539.3,96.2H493.4c0-21.7-17.2-38.1-46.5-38.1-24.3,0-46.8,9.8-46.8,29.1-.1,17.4,16.3,23.6,53.2,31.6,57.2,12,93.4,26.9,93.3,78.5.1,48.7-38.8,79.2-99.6,79.3-47.2-.1-98.7-27.3-98.6-88h45.8c0,29.8,28.5,43.9,52.8,44,26.4,0,53.8-9.8,53.8-33.8,0-16-12.4-25.8-56.9-34.9s-89.6-22.8-89.6-77.1c0-43.2,36.6-73.4,92.8-73.4,63.4-.1,92.2,42.8,92.2,82.8"/>
    </g>
</svg>